<svg width="309" height="72" viewBox="0 0 309 72" fill="none" xmlns="http://www.w3.org/2000/svg">
<g clip-path="url(#clip0_318_1325)">
<path d="M81.1001 49.2999L83.6001 53.4999H85.4001V43.8999H83.8001V47.2999C83.8001 48.7999 83.8001 49.9999 84.0001 51.2999C83.5001 50.1999 83.0001 49.0999 82.4001 48.0999L79.9001 43.9999H77.9001V53.5999H79.5001V50.1999C79.5001 48.5999 79.5001 47.2999 79.4001 46.0999C79.9001 47.0999 80.5001 48.2999 81.1001 49.2999Z" fill="white"/>
<path d="M91.1 51.1C91.1 51.2 91.1 51.4 91 51.5C90.8 52.1 90.2 52.5 89.6 52.5C89.1 52.5 88.6 52.2 88.6 51.7C88.6 51.6 88.6 51.6 88.6 51.5C88.6 50.4 89.8 50.2 91 50.2L91.1 51.1ZM91.2 52.8L91.3 53.6H92.9C92.8 53 92.8 52.5 92.8 51.9V49.4C93 48 92 46.7 90.6 46.5C90.4 46.5 90.2 46.5 90 46.5C89.1 46.5 88.3 46.7 87.5 47.1L87.8 48.2C88.4 47.9 89 47.7 89.7 47.7C90.9 47.7 91.1 48.5 91.1 48.9V49C88.5 49 87 49.9 87 51.6C87 52.7 87.9 53.7 89 53.7H89.1C89.9 53.7 90.6 53.4 91.2 52.8Z" fill="white"/>
<path d="M98.2001 52.2001C98.0001 52.3001 97.7001 52.3 97.5001 52.3C96.8001 52.3 96.6001 51.9 96.6001 51V47.9001H98.3001V46.6H96.6001V44.8L94.9001 45.3V46.6H93.9001V47.9001H94.9001V51.2001C94.8001 51.9001 95.0001 52.6 95.4001 53.1C95.8001 53.5 96.3001 53.7001 96.9001 53.7001C97.3001 53.7001 97.8001 53.6 98.2001 53.5V52.2001Z" fill="white"/>
<path d="M100.5 43.7C100 43.7 99.5 44.0999 99.5 44.5999C99.5 44.5999 99.5 44.6 99.5 44.7C99.5 45.2 100 45.7 100.5 45.7C101 45.7 101.4 45.3 101.5 44.7C101.5 44.1 101.1 43.7 100.5 43.7Z" fill="white"/>
<path d="M99.6001 46.6001H101.4V53.5001H99.6001V46.6001Z" fill="white"/>
<path d="M106.4 47.7C107.6 47.7 108.1 48.9 108.1 50C108.1 51.4 107.4 52.4 106.4 52.4C105.3 52.4 104.7 51.4 104.7 50C104.6 48.9 105.1 47.7 106.4 47.7ZM106.3 53.7C108.2 53.8 109.8 52.3 109.9 50.4C109.9 50.3 109.9 50.1 109.9 50C110 48.2 108.6 46.6 106.8 46.4C106.7 46.4 106.6 46.4 106.4 46.4C104.5 46.3 102.9 47.8 102.8 49.7C102.8 49.8 102.8 50 102.8 50.1C102.7 52 104.1 53.6 105.9 53.7C106 53.7 106.2 53.7 106.3 53.7Z" fill="white"/>
<path d="M115.1 46.3999C114.2 46.3999 113.4 46.7999 112.9 47.5999L112.8 46.5999H111.3C111.3 47.1999 111.4 47.8999 111.4 48.6999V53.5999H113.2V49.4999C113.2 49.2999 113.2 49.0999 113.3 48.8999C113.5 48.2999 114 47.8999 114.7 47.8999C115.7 47.8999 116 48.6999 116 49.6999V53.5999H117.8V49.4999C117.6 47.1999 116.3 46.3999 115.1 46.3999Z" fill="white"/>
<path d="M123.1 51.1C123.1 51.2 123.1 51.4 123 51.5C122.8 52.1 122.2 52.5 121.6 52.5C121.1 52.5 120.6 52.2 120.6 51.7C120.6 51.6 120.6 51.6 120.6 51.5C120.6 50.4 121.8 50.2 123 50.2L123.1 51.1ZM124.9 49.4C125.1 48 124.1 46.7 122.7 46.5C122.5 46.5 122.3 46.5 122.1 46.5C121.2 46.5 120.4 46.7 119.6 47.1L119.9 48.2C120.5 47.9 121.1 47.7 121.8 47.7C123 47.7 123.2 48.5 123.2 48.9V49C120.6 49 119.1 49.9 119.1 51.6C119.1 52.7 120 53.7 121.1 53.7H121.2C122 53.7 122.8 53.4 123.3 52.8L123.4 53.6H125C124.9 53 124.9 52.5 124.9 51.9V49.4Z" fill="white"/>
<path d="M126.7 43.3999H128.5V53.4999H126.7V43.3999Z" fill="white"/>
<path d="M140.6 43.8999L139.3 47.7999C138.9 48.8999 138.6 49.9999 138.3 51.0999C138 49.9999 137.8 48.8999 137.4 47.7999L136.1 43.8999H133.8L133.2 53.4999H134.8L135 49.5999C135.1 48.2999 135.1 46.7999 135.2 45.4999C135.5 46.6999 135.8 47.9999 136.2 49.2999L137.5 53.3999H138.9L140.3 49.1999C140.7 47.9999 141.1 46.6999 141.4 45.4999C141.4 46.7999 141.5 48.2999 141.5 49.5999L141.7 53.4999H143.4L142.8 43.8999H140.6Z" fill="white"/>
<path d="M147.6 53.7C148.5 53.7 149.4 53.3 149.8 52.5L149.9 53.6H151.4C151.4 52.9 151.3 52.2 151.3 51.5V46.6H149.5V50.8C149.5 51 149.5 51.2 149.4 51.3C149.2 51.9 148.7 52.2 148.1 52.2C147.2 52.2 146.8 51.5 146.8 50.3V46.5H145V50.6C145.1 53 146.3 53.7 147.6 53.7Z" fill="white"/>
<path d="M157.8 51.5C157.8 50.5 157.2 49.8 155.9 49.4C155 49.1 154.7 48.9 154.7 48.4C154.7 47.9 155 47.7 155.7 47.7C156.2 47.7 156.7 47.8 157.2 48.1L157.5 46.9C156.9 46.6 156.3 46.5 155.7 46.5C154.1 46.5 153.1 47.5 153.1 48.7C153.1 49.5 153.7 50.3 155 50.7C155.9 51 156.1 51.2 156.1 51.7C156.1 52.2 155.8 52.5 155 52.5C154.4 52.5 153.8 52.3 153.2 52L152.9 53.3C153.6 53.6 154.3 53.8 155 53.8C156.8 53.7 157.8 52.8 157.8 51.5Z" fill="white"/>
<path d="M160.5 49.2999C160.5 48.3999 161.2 47.6999 162.1 47.5999C162.9 47.5999 163.6 48.2999 163.6 49.0999C163.6 49.1999 163.6 49.1999 163.6 49.2999H160.5ZM165.2 49.7999C165.2 48.2999 164.5 46.3999 162.2 46.3999C160.3 46.3999 158.8 47.9999 158.8 49.8999C158.8 49.9999 158.8 50.0999 158.8 50.1999C158.7 51.9999 160 53.5999 161.9 53.6999C162.1 53.6999 162.3 53.6999 162.4 53.6999C163.2 53.6999 164.1 53.5999 164.8 53.2999L164.5 52.0999C163.9 52.2999 163.2 52.3999 162.6 52.3999C161.6 52.4999 160.6 51.7999 160.5 50.7999C160.5 50.6999 160.5 50.6999 160.5 50.5999H165.2C165.2 50.2999 165.2 50.0999 165.2 49.7999Z" fill="white"/>
<path d="M172.8 51.5V46.6H171V50.8C171 51 171 51.2 170.9 51.3C170.7 51.9 170.2 52.2 169.6 52.2C168.7 52.2 168.3 51.5 168.3 50.3V46.5H166.5V50.6C166.5 52.9 167.7 53.6 168.9 53.6C169.8 53.6 170.7 53.2 171.1 52.4L171.2 53.5H172.7C172.9 52.9 172.8 52.2 172.8 51.5Z" fill="white"/>
<path d="M182.7 46.3999C182.2 46.3999 181.7 46.4999 181.3 46.7999C180.9 46.9999 180.7 47.2999 180.4 47.6999C180.1 46.8999 179.3 46.3999 178.5 46.3999C177.6 46.3999 176.8 46.7999 176.4 47.5999L176.3 46.5999H174.8C174.8 47.1999 174.9 47.8999 174.9 48.6999V53.5999H176.6V49.4999C176.6 49.2999 176.6 49.0999 176.7 48.8999C176.9 48.2999 177.4 47.8999 178 47.8999C178.8 47.8999 179.2 48.5999 179.2 49.5999V53.5999H180.9V49.3999C180.9 49.1999 180.9 48.9999 181 48.7999C181.2 48.2999 181.7 47.8999 182.2 47.8999C183 47.8999 183.4 48.5999 183.4 49.6999V53.4999H185.1V49.3999C185 47.1999 183.8 46.3999 182.7 46.3999Z" fill="white"/>
<path d="M194.6 50.1C194.6 51.5 193.9 52.5 192.9 52.5C191.8 52.5 191.2 51.5 191.2 50.1C191.2 48.9 191.7 47.7 192.9 47.7C194.1 47.7 194.6 49 194.6 50.1ZM189.4 50.1C189.3 52 190.7 53.6 192.5 53.7C192.6 53.7 192.7 53.7 192.9 53.7C194.8 53.8 196.4 52.3 196.5 50.4C196.5 50.3 196.5 50.1 196.5 50C196.6 48.2 195.2 46.6 193.4 46.4C193.3 46.4 193.2 46.4 193 46.4C191.1 46.3 189.5 47.8 189.4 49.6C189.4 49.8 189.4 50 189.4 50.1Z" fill="white"/>
<path d="M198.1 46.6001H197.2V47.9001H198.1V53.5001H199.9V47.9001H201.4V46.6001H199.9V46.2001C199.9 45.3001 200.2 44.6001 201.1 44.6001C201.4 44.6001 201.6 44.6001 201.8 44.7001L201.9 43.3001C201.5 43.2001 201.2 43.1001 200.8 43.1001C200.1 43.1001 199.5 43.3001 199 43.8001C198.4 44.4001 198.1 45.3001 198.2 46.2001V46.6001H198.1Z" fill="white"/>
<path d="M85.0001 57.8999L83.7001 61.7999C83.3001 62.8999 83.0001 64.0999 82.7001 65.1999C82.4001 64.0999 82.2001 62.9999 81.8001 61.8999L80.5001 57.9999H78.2001L77.6001 67.5999H79.2001L79.4001 63.6999C79.5001 62.3999 79.5001 60.8999 79.6001 59.5999C79.9001 60.7999 80.2001 62.0999 80.6001 63.3999L81.9001 67.4999H83.3001L84.7001 63.2999C85.1001 62.0999 85.5001 60.7999 85.8001 59.5999C85.8001 60.8999 85.9001 62.3999 85.9001 63.6999L86.1001 67.5999H87.8001L87.2001 57.9999L85.0001 57.8999Z" fill="white"/>
<path d="M92.7001 66.4C91.6001 66.4 91.0001 65.4 91.0001 64C91.0001 62.8 91.5001 61.6 92.7001 61.6C93.9001 61.6 94.4001 62.8 94.4001 63.9C94.4001 65.4 93.7001 66.4 92.7001 66.4ZM92.8001 60.4C90.9001 60.3 89.3001 61.8 89.2001 63.7C89.2001 63.8 89.2001 64 89.2001 64.1C89.1001 66 90.5001 67.6 92.3001 67.7C92.4001 67.7 92.5001 67.7 92.7001 67.7C94.6001 67.8 96.2001 66.3 96.3001 64.4C96.3001 64.3 96.3001 64.1 96.3001 64C96.4001 62.2 95.0001 60.6 93.2001 60.4C93.0001 60.4 92.9001 60.4 92.8001 60.4Z" fill="white"/>
<path d="M102.3 64.5C102.3 64.7 102.3 64.8 102.2 65C102.1 65.7 101.4 66.2 100.7 66.2C99.6 66.2 99 65.3 99 64C99 62.7 99.6 61.7001 100.8 61.7001C101.5 61.7001 102.2 62.2001 102.3 62.9001C102.3 63.1001 102.3 63.2001 102.3 63.4001V64.5ZM104.1 57.3H102.3V61.2001C101.9 60.6001 101.1 60.2 100.3 60.3C98.6 60.3 97.2 61.7 97.2 64C97.2 66.1 98.5 67.6 100.2 67.6C101.1 67.6 102 67.2001 102.5 66.3001L102.6 67.4001H104.2C104.2 66.7001 104.1 66.1001 104.1 65.4001V57.3Z" fill="white"/>
<path d="M107.2 63.2999C107.2 62.3999 107.9 61.6999 108.8 61.5999C109.6 61.5999 110.3 62.2999 110.3 63.0999C110.3 63.1999 110.3 63.1999 110.3 63.2999H107.2ZM108.9 60.3999C107 60.3999 105.5 61.9999 105.5 63.8999C105.5 63.9999 105.5 64.0999 105.5 64.1999C105.4 65.9999 106.7 67.5999 108.5 67.6999C108.7 67.6999 108.9 67.6999 109 67.6999C109.8 67.6999 110.7 67.5999 111.4 67.2999L111.1 66.0999C110.5 66.2999 109.8 66.3999 109.2 66.3999C108.2 66.4999 107.2 65.7999 107.1 64.7999C107.1 64.6999 107.1 64.6999 107.1 64.5999H111.8C111.8 64.3999 111.9 64.0999 111.9 63.8999C111.9 62.1999 111.2 60.3999 108.9 60.3999Z" fill="white"/>
<path d="M114.9 61.9001L114.8 60.6001H113.3C113.3 61.2001 113.4 61.9001 113.4 62.8001V67.5001H115.2V63.9001C115.2 63.7001 115.2 63.5001 115.3 63.4001C115.4 62.6001 116.1 62.1001 116.9 62.1001C117.1 62.1001 117.2 62.1001 117.4 62.2001V60.5001C117.3 60.5001 117.1 60.5001 117 60.5001C115.9 60.4001 115.2 61.0001 114.9 61.9001Z" fill="white"/>
<path d="M122.3 60.3999C121.4 60.3999 120.6 60.7999 120.1 61.5999L120 60.5999H118.5C118.5 61.1999 118.6 61.8999 118.6 62.6999V67.5999H120.4V63.4999C120.4 63.2999 120.4 63.0999 120.5 62.8999C120.7 62.2999 121.2 61.8999 121.9 61.8999C122.9 61.8999 123.2 62.6999 123.2 63.6999V67.5999H125V63.4999C124.7 61.1999 123.5 60.3999 122.3 60.3999Z" fill="white"/>
<path d="M133.2 64.9999C133.2 65.0999 133.2 65.2999 133.1 65.3999C132.9 65.9999 132.3 66.3999 131.7 66.3999C131.2 66.3999 130.7 66.0999 130.7 65.5999C130.7 65.4999 130.7 65.4999 130.7 65.3999C130.7 64.2999 131.9 64.0999 133.1 64.0999V64.9999H133.2ZM135 63.2999C135.2 61.8999 134.2 60.5999 132.8 60.3999C132.6 60.3999 132.4 60.3999 132.2 60.3999C131.3 60.3999 130.5 60.5999 129.7 60.9999L130 62.0999C130.6 61.7999 131.2 61.5999 131.9 61.5999C133.1 61.5999 133.3 62.3999 133.3 62.7999V62.8999C130.7 62.8999 129.2 63.7999 129.2 65.4999C129.2 66.5999 130.1 67.5999 131.3 67.5999H131.4C132.2 67.5999 132.9 67.2999 133.5 66.6999L133.6 67.4999H135.2C135.1 66.8999 135.1 66.3999 135.1 65.7999L135 63.2999Z" fill="white"/>
<path d="M140.6 60.3999C139.7 60.3999 138.9 60.7999 138.4 61.5999L138.3 60.5999H136.8C136.8 61.1999 136.9 61.8999 136.9 62.6999V67.5999H138.7V63.4999C138.7 63.2999 138.7 63.0999 138.8 62.8999C139 62.2999 139.5 61.8999 140.2 61.8999C141.2 61.8999 141.5 62.6999 141.5 63.6999V67.5999H143.3V63.4999C143.1 61.1999 141.9 60.3999 140.6 60.3999Z" fill="white"/>
<path d="M149.6 64.5C149.6 64.7 149.6 64.8 149.5 65C149.4 65.7 148.7 66.2 148 66.2C146.9 66.2 146.3 65.3 146.3 64C146.3 62.7 146.9 61.7001 148.1 61.7001C148.8 61.7001 149.5 62.2001 149.6 62.9001C149.6 63.1001 149.6 63.2001 149.6 63.4001V64.5ZM151.4 57.3H149.6V61.2001C149.2 60.6001 148.4 60.2 147.6 60.3C145.9 60.3 144.5 61.7 144.5 64C144.5 66.1 145.8 67.6 147.5 67.6C148.4 67.6 149.3 67.2001 149.8 66.3001L149.9 67.4001H151.5C151.5 66.7001 151.4 66.1001 151.4 65.4001V57.3Z" fill="white"/>
<path d="M161 59.1999C161.6 59.1999 162.3 59.2999 162.9 59.5999L163.3 58.1999C162.6 57.8999 161.8 57.6999 161 57.7999C158.3 57.5999 156 59.6999 155.9 62.2999C155.9 62.4999 155.9 62.6999 155.9 62.8999C155.7 65.3999 157.6 67.5999 160.1 67.7999C160.3 67.7999 160.6 67.7999 160.8 67.7999C161.7 67.7999 162.5 67.6999 163.3 67.3999L163 65.9999C162.4 66.1999 161.7 66.3999 161.1 66.3999C159.4 66.4999 157.9 65.1999 157.7 63.4999C157.7 63.2999 157.7 63.0999 157.7 62.9999C157.5 61.1999 158.8 59.6999 160.5 59.4999C160.7 59.0999 160.9 59.0999 161 59.1999Z" fill="white"/>
<path d="M167.5 66.4001C166.4 66.4001 165.8 65.4 165.8 64C165.8 62.8 166.3 61.6 167.5 61.6C168.7 61.6 169.2 62.8001 169.2 63.9001C169.2 65.4001 168.5 66.4001 167.5 66.4001ZM167.6 60.4001C165.7 60.3001 164.1 61.8 164 63.6C164 63.7 164 63.9 164 64C163.9 65.9 165.3 67.5 167.1 67.6C167.2 67.6 167.3 67.6 167.5 67.6C169.4 67.7 171 66.2001 171.1 64.3001C171.1 64.2001 171.1 64.0001 171.1 63.9001C171.2 62.1001 169.8 60.5 168 60.3C167.8 60.4 167.7 60.4001 167.6 60.4001Z" fill="white"/>
<path d="M176.3 60.3999C175.4 60.3999 174.6 60.7999 174.1 61.5999L174 60.5999H172.5C172.5 61.1999 172.6 61.8999 172.6 62.6999V67.5999H174.4V63.4999C174.4 63.2999 174.4 63.0999 174.5 62.8999C174.7 62.2999 175.2 61.8999 175.9 61.8999C176.9 61.8999 177.2 62.6999 177.2 63.6999V67.5999H179V63.4999C178.8 61.1999 177.5 60.3999 176.3 60.3999Z" fill="white"/>
<path d="M182.6 58.7L180.9 59.2V60.5H179.9V61.7999H180.9V65.0999C180.8 65.7999 181 66.5 181.4 67C181.8 67.4 182.3 67.5999 182.9 67.5999C183.3 67.5999 183.8 67.5 184.2 67.4V66.0999C184 66.1999 183.7 66.1999 183.5 66.1999C182.8 66.1999 182.6 65.8 182.6 64.9V61.7999H184.3V60.5H182.6V58.7Z" fill="white"/>
<path d="M186.8 63.2999C186.8 62.3999 187.5 61.6999 188.4 61.5999C189.2 61.5999 189.9 62.2999 189.9 63.0999C189.9 63.1999 189.9 63.1999 189.9 63.2999H186.8ZM188.5 60.3999C186.6 60.3999 185.1 61.9999 185.1 63.8999C185.1 63.9999 185.1 64.0999 185.1 64.1999C185 65.9999 186.3 67.5999 188.1 67.6999C188.3 67.6999 188.5 67.6999 188.6 67.6999C189.4 67.6999 190.3 67.5999 191 67.2999L190.7 66.0999C190.1 66.2999 189.4 66.3999 188.8 66.3999C187.8 66.4999 186.8 65.7999 186.7 64.7999C186.7 64.6999 186.7 64.6999 186.7 64.5999H191.4C191.4 64.3999 191.5 64.0999 191.5 63.8999C191.5 62.1999 190.7 60.3999 188.5 60.3999Z" fill="white"/>
<path d="M200.8 60.3999C200.3 60.3999 199.8 60.4999 199.4 60.7999C199.1 60.9999 198.8 61.2999 198.5 61.6999C198.2 60.8999 197.4 60.3999 196.6 60.3999C195.7 60.3999 194.9 60.7999 194.5 61.5999L194.4 60.5999H192.9C192.9 61.1999 193 61.8999 193 62.6999V67.5999H194.7V63.4999C194.7 63.2999 194.7 63.0999 194.8 62.8999C195 62.2999 195.5 61.8999 196.1 61.8999C196.9 61.8999 197.3 62.5999 197.3 63.5999V67.5999H199V63.3999C199 63.1999 199 62.9999 199.1 62.7999C199.3 62.2999 199.8 61.8999 200.3 61.8999C201.1 61.8999 201.5 62.5999 201.5 63.6999V67.4999H203.2V63.3999C203.1 61.1999 202 60.3999 200.8 60.3999Z" fill="white"/>
<path d="M208.3 66.2999C207.6 66.2999 206.9 65.7999 206.8 65.0999C206.8 64.8999 206.7 64.7999 206.7 64.5999V63.4999C206.7 63.3999 206.7 63.1999 206.8 63.0999C207 62.3999 207.6 61.7999 208.4 61.7999C209.5 61.7999 210.1 62.7999 210.1 63.9999C210.1 65.2999 209.5 66.2999 208.3 66.2999ZM209 60.3999C208 60.3999 207.1 60.7999 206.6 61.5999L206.5 60.4999H205C205 61.1999 205.1 61.8999 205.1 62.7999V70.2999H206.9V66.6999C207.4 67.2999 208.1 67.6999 208.9 67.5999C210.5 67.5999 212.1 66.3999 212.1 63.8999C211.9 61.6999 210.6 60.3999 209 60.3999Z" fill="white"/>
<path d="M216.4 66.4001C215.3 66.4001 214.7 65.4 214.7 64C214.7 62.8 215.2 61.6 216.4 61.6C217.6 61.6 218.1 62.8001 218.1 63.9001C218.1 65.4001 217.4 66.4001 216.4 66.4001ZM216.5 60.4001C214.6 60.3001 213 61.8 212.9 63.6C212.9 63.7 212.9 63.9 212.9 64C212.8 65.9 214.2 67.5 216 67.6C216.1 67.6 216.2 67.6 216.4 67.6C218.3 67.7 219.9 66.2001 220 64.3001C220 64.2001 220 64.0001 220 63.9001C220.1 62.1001 218.7 60.5 216.9 60.3C216.7 60.4 216.6 60.4001 216.5 60.4001Z" fill="white"/>
<path d="M223 61.9001L222.9 60.6001H221.4C221.4 61.2001 221.5 61.9001 221.5 62.8001V67.5001H223.3V63.9001C223.3 63.7001 223.3 63.5001 223.4 63.4001C223.5 62.6001 224.2 62.1001 225 62.1001C225.2 62.1001 225.3 62.1001 225.5 62.2001V60.5001C225.4 60.5001 225.2 60.5001 225.1 60.5001C224 60.4001 223.2 61.0001 223 61.9001Z" fill="white"/>
<path d="M230.1 64.9999C230.1 65.0999 230.1 65.2999 230 65.3999C229.8 65.9999 229.2 66.3999 228.6 66.3999C228.1 66.3999 227.6 66.0999 227.6 65.5999C227.6 65.4999 227.6 65.4999 227.6 65.3999C227.6 64.2999 228.8 64.0999 230 64.0999V64.9999H230.1ZM231.8 63.2999C232 61.8999 231 60.5999 229.6 60.3999C229.4 60.3999 229.2 60.3999 229 60.3999C228.1 60.3999 227.3 60.5999 226.5 60.9999L226.8 62.0999C227.4 61.7999 228 61.5999 228.7 61.5999C229.9 61.5999 230.1 62.3999 230.1 62.7999V62.8999C227.5 62.8999 226 63.7999 226 65.4999C226 66.5999 226.9 67.5999 228.1 67.5999H228.2C229 67.5999 229.7 67.2999 230.3 66.6999L230.4 67.4999H232C231.9 66.8999 231.9 66.3999 231.9 65.7999L231.8 63.2999Z" fill="white"/>
<path d="M235.2 61.9001L235.1 60.6001H233.6C233.6 61.2001 233.7 61.9001 233.7 62.8001V67.5001H235.5V63.9001C235.5 63.7001 235.5 63.5001 235.6 63.4001C235.7 62.6001 236.4 62.1001 237.2 62.1001C237.4 62.1001 237.5 62.1001 237.7 62.2001V60.5001C237.6 60.5001 237.4 60.5001 237.3 60.5001C236.2 60.4001 235.5 61.0001 235.2 61.9001Z" fill="white"/>
<path d="M242.2 64.2C242.1 64.7 241.9 65.2 241.8 65.6C241.7 65.2 241.6 64.7 241.4 64.2L240.1 60.5H238.2L240.7 66.9C240.8 67 240.8 67.1 240.8 67.2C240.8 67.3 240.7 67.4 240.7 67.5C240.5 67.9 240.1 68.3 239.7 68.6C239.4 68.8 239 69 238.7 69.1L239.1 70.6C239.8 70.5 240.4 70.2 240.9 69.7C241.7 69 242.4 67.8 243.3 65.2L245 60.5H243.1L242.2 64.2Z" fill="white"/>
<path d="M251.4 63.3999L252.1 60.9999C252.3 60.3999 252.4 59.7999 252.6 59.1999C252.7 59.7999 252.9 60.3999 253.1 60.9999L253.9 63.3999H251.4ZM251.6 57.8999L248.5 67.4999H250.3L251.1 64.7999H254.2L255.1 67.4999H257L253.9 57.8999H251.6Z" fill="white"/>
<path d="M259.7 61.9001L259.6 60.6001H258.1C258.1 61.2001 258.2 61.9001 258.2 62.8001V67.5001H260V63.9001C260 63.7001 260 63.5001 260.1 63.4001C260.2 62.6001 260.9 62.1001 261.7 62.1001C261.9 62.1001 262 62.1001 262.2 62.2001V60.5001C262.1 60.5001 261.9 60.5001 261.8 60.5001C260.8 60.4001 260 61.0001 259.7 61.9001Z" fill="white"/>
<path d="M265.6 58.7L263.9 59.2V60.5H262.9V61.7999H263.9V65.0999C263.8 65.7999 264 66.5 264.4 67C264.8 67.4 265.3 67.5999 265.9 67.5999C266.3 67.5999 266.8 67.5 267.2 67.4V66.0999C267 66.1999 266.7 66.1999 266.5 66.1999C265.8 66.1999 265.6 65.8 265.6 64.9V61.7999H267.3V60.5H265.6V58.7Z" fill="white"/>
<path d="M267.7 69.2L268.9 69.1C269.6 67.9 270.1 66.6 270.5 65.3L268.7 65.4C268.4 66.7 268.1 68 267.7 69.2Z" fill="white"/>
<path d="M282.1 57.8999H279.9L277.4 61.2999C277.2 61.5999 276.9 61.9999 276.7 62.2999V57.8999H275V67.4999H276.7V64.0999L277.6 63.0999L280.3 67.4999H282.4L278.9 61.9999L282.1 57.8999Z" fill="white"/>
<path d="M286.1 66.4C285 66.4 284.4 65.4 284.4 64C284.4 62.8 284.9 61.6 286.1 61.6C287.3 61.6 287.8 62.8 287.8 63.9C287.8 65.4 287.1 66.4 286.1 66.4ZM286.2 60.4C284.3 60.3 282.7 61.8 282.6 63.7C282.6 63.8 282.6 64 282.6 64.1C282.5 66 283.9 67.6 285.7 67.7C285.8 67.7 285.9 67.7 286 67.7C287.9 67.8 289.5 66.3 289.6 64.4C289.6 64.3 289.6 64.1 289.6 64C289.7 62.2 288.3 60.6 286.5 60.4C286.4 60.4 286.3 60.4 286.2 60.4Z" fill="white"/>
<path d="M292.6 61.9001L292.5 60.6001H291C291 61.2001 291.1 61.9001 291.1 62.8001V67.5001H292.8V63.9001C292.8 63.7001 292.8 63.5001 292.9 63.4001C293 62.6001 293.7 62.1001 294.5 62.1001C294.7 62.1001 294.8 62.1001 295 62.2001V60.5001C294.9 60.5001 294.7 60.5001 294.6 60.5001C293.7 60.4001 292.9 61.0001 292.6 61.9001Z" fill="white"/>
<path d="M297.3 63.2999C297.3 62.3999 298 61.6999 298.9 61.5999C299.7 61.5999 300.4 62.2999 300.4 63.0999C300.4 63.1999 300.4 63.1999 300.4 63.2999H297.3ZM299 60.3999C297.1 60.3999 295.6 61.9999 295.6 63.8999C295.6 63.9999 295.6 64.0999 295.6 64.1999C295.5 65.9999 296.8 67.5999 298.6 67.6999C298.8 67.6999 299 67.6999 299.1 67.6999C299.9 67.6999 300.8 67.5999 301.5 67.2999L301.2 66.0999C300.6 66.2999 299.9 66.3999 299.3 66.3999C298.3 66.4999 297.3 65.7999 297.2 64.7999C297.2 64.6999 297.2 64.6999 297.2 64.5999H301.9C301.9 64.3999 302 64.0999 302 63.8999C302 62.1999 301.2 60.3999 299 60.3999Z" fill="white"/>
<path d="M307.1 64.9999C307.1 65.0999 307.1 65.2999 307 65.3999C306.8 65.9999 306.2 66.3999 305.6 66.3999C305.1 66.3999 304.6 66.0999 304.6 65.5999C304.6 65.4999 304.6 65.4999 304.6 65.3999C304.6 64.2999 305.8 64.0999 307 64.0999V64.9999H307.1ZM308.8 65.7999V63.2999C309 61.8999 308 60.5999 306.6 60.3999C306.4 60.3999 306.2 60.3999 306 60.3999C305.1 60.3999 304.3 60.5999 303.5 60.9999L303.8 62.0999C304.4 61.7999 305 61.5999 305.7 61.5999C306.9 61.5999 307.1 62.3999 307.1 62.7999V62.8999C304.5 62.8999 303 63.7999 303 65.4999C303 66.5999 303.9 67.5999 305.1 67.5999H305.2C306 67.5999 306.7 67.2999 307.3 66.6999L307.4 67.4999H309C308.8 66.8999 308.8 66.3999 308.8 65.7999Z" fill="white"/>
<path d="M40.5 56H56.4L48.5 36L40.5 56Z" fill="white"/>
<path d="M61.7 67.4C61.6 67.4 61.5 67.5 61.4 67.5C61.1 67.5 60.8 67.3 60.6 67L57 57.6H39.9L36.2 66.9C36 67.3 35.6 67.5 35.2 67.4C34.8 67.2 34.6 66.8 34.7 66.4L40.5 51.7V27.7L30 49.7C29.8 50.1 29.3 50.3 28.9 50.1C28.7 50 28.6 49.9 28.5 49.7L18 27.6V38.5C18.6 38.5 19.2 38.5 19.7 38.5C20.1 38.5 20.5 38.9 20.5 39.3C20.5 39.7 20.1 40.1 19.7 40.1C19.5 40.1 19.2 40.1 19 40.1C18.7 40.1 18.4 40.1 18.1 40.1V50C18.1 50.4 17.7 50.8 17.3 50.8C16.9 50.8 16.5 50.4 16.5 50V40.4C16.2 40.5 16 40.5 15.7 40.6C10.7 42.1 7.30003 46.6 7.30003 51.8C7.30003 52.9 7.50003 54.1 7.80003 55.1C9.30003 60.1 13.8 63.5 19 63.5C20.1 63.5 21.3 63.3 22.3 63C26.1 61.9 29.1 58.9 30.2 55.1C30.3 54.7 30.8 54.4 31.2 54.6C31.6 54.7 31.9 55.2 31.7 55.6C29.6 62.6 22.2 66.7 15.1 64.5C8.10003 62.4 4.00003 55 6.20003 47.9C7.50003 43.6 10.9 40.2 15.2 39C15.6 38.9 16 38.8 16.4 38.7V24.2L9.40003 9.4V31.8C9.40003 32.2 9.00003 32.6 8.60003 32.6C8.20003 32.6 7.80003 32.2 7.80003 31.8V5.9C7.80003 5.5 8.20003 5.1 8.60003 5.1C8.90003 5.1 9.20003 5.3 9.30003 5.6L20.6 29.4L32 5.5C32.2 5.1 32.7 4.9 33.1 5.1C33.4 5.2 33.5 5.5 33.6 5.8V31.7C33.6 32.1 33.2 32.5 32.8 32.5C32.4 32.5 32 32.1 32 31.7V9.4L21.5 31.2L29.2 47.5L40.5 23.7C40.7 23.3 41.2 23.1 41.6 23.3C41.9 23.4 42.1 23.7 42.1 24V47.5L47.7 33.5C47.9 33.1 48.3 32.9 48.7 33C48.9 33.1 49.1 33.2 49.2 33.5L62.2 66.3C62.3 66.7 62.1 67.2 61.7 67.4ZM48 28.8V17.3H39.4V0H27.5L20.7 14.2H20.6L13.8 0H1.90003V36H8.40003C-0.299968 41.8 -2.59997 53.6 3.20003 62.3C9.00003 71 20.8 73.3 29.5 67.5L27.7 72H39.6L41.9 66.2H55L57.3 72H70.2L53 28.8H48Z" fill="white"/>
<path d="M86.8 25.3H78.5V28.6H94.7V37.2H98.5V25.3H90.6V19.7H103.6V16.4H97C97.5 15 97.9 13.5 98.1 12.1C98.4 10.1 98.6 8 98.6 6V4.5H78.7V7.8H94.8C94.8 8.4 94.8 9 94.7 9.8C94.6 10.6 94.5 11.3 94.4 12.1C94.3 12.9 94.1 13.7 93.8 14.5C93.6 15.2 93.4 15.8 93.2 16.4H73.7V19.7H86.8V25.3Z" fill="white"/>
<path d="M129.4 3.6001H133.2V22.2001H129.4V3.6001Z" fill="white"/>
<path d="M129.4 33.9001H118.3V30.9001H129.4V33.9001ZM118.3 24.1001H114.5V35.8001C114.4 36.5001 114.9 37.1001 115.6 37.2001C115.7 37.2001 115.8 37.2001 116 37.2001H133.3V24.1001H129.5V27.6001H118.4L118.3 24.1001Z" fill="white"/>
<path d="M109.4 21.6H114.2C115.2 21.6 116.2 21.6 117.4 21.5C118.6 21.4 119.6 21.4 120.7 21.3C121.8 21.2 122.8 21.1 123.8 20.9C124.7 20.8 125.5 20.6 126.3 20.4L125.8 17.2C125.1 17.4 124.3 17.5 123.5 17.6C122.6 17.7 121.8 17.8 120.9 17.9C120 18 119.1 18 118.3 18.1C117.5 18.2 116.7 18.2 116.1 18.2H111.7V14.9H122.2V5H108V8.3H118.4V11.6H108V20.1C107.9 20.8 108.4 21.4 109.1 21.5C109.2 21.6 109.3 21.6 109.4 21.6Z" fill="white"/>
<path d="M144.4 17.9999C144.4 17.0999 144.7 16.2999 145.3 15.5999C145.9 14.8999 146.8 14.5999 147.8 14.5999C149.6 14.4999 151.2 15.8999 151.2 17.7999C151.2 17.8999 151.2 17.8999 151.2 17.9999C151.2 18.3999 151.1 18.8999 150.9 19.2999C150.7 19.6999 150.5 20.0999 150.2 20.3999C149.9 20.6999 149.5 20.9999 149.1 21.0999C148.7 21.2999 148.2 21.3999 147.7 21.3999C145.9 21.4999 144.4 19.9999 144.3 18.1999C144.4 18.0999 144.4 18.0999 144.4 17.9999ZM150.7 23.9999C152.3 23.3999 153.7 22.0999 154.4 20.4999C154.7 19.6999 154.9 18.7999 154.9 17.9999C154.9 17.0999 154.7 16.1999 154.4 15.3999C154.1 14.5999 153.6 13.8999 152.9 13.2999C152.3 12.6999 151.5 12.1999 150.7 11.8999C149.8 11.5999 148.8 11.3999 147.8 11.3999C146.8 11.3999 145.9 11.5999 145 11.8999C144.2 12.1999 143.4 12.6999 142.8 13.2999C142.2 13.8999 141.7 14.5999 141.3 15.3999C141 16.1999 140.8 17.0999 140.8 17.9999C140.8 18.8999 141 19.6999 141.3 20.4999C141.6 21.2999 142.2 21.9999 142.8 22.5999C143.4 23.1999 144.2 23.6999 145 23.9999C145.9 24.2999 146.9 24.4999 147.8 24.4999C148.8 24.4999 149.8 24.3999 150.7 23.9999Z" fill="white"/>
<path d="M157.1 7.2001H149.7V3.1001H145.9V7.2001H138.6V10.4001H157.1V7.2001Z" fill="white"/>
<path d="M166.4 33.1H150.9V27H147.1V35C147 35.7 147.5 36.3 148.2 36.4C148.3 36.4 148.4 36.4 148.6 36.4H166.4V33.1Z" fill="white"/>
<path d="M156.9 15.3001H161.9V18.4001H156.9V21.7001H161.9V28.4001H165.7V3.6001H161.9V12.0001H156.9V15.3001Z" fill="white"/>
<path d="M191.3 16.4001H194.7V32.4001H198.4V3.6001H194.7V13.2001H191.3V4.0001H187.6V31.3001H191.3V16.4001Z" fill="white"/>
<path d="M172.9 24.5H175.2C177.1 24.5 179 24.4 180.8 24.3C182.5 24.2 184.2 24 185.9 23.6L185.4 20.5C184.1 20.8 182.8 21 181.5 21C180.1 21.1 178.7 21.1 177.3 21.2H175.3V9.10005H183.5V5.80005H171.5V23.2001C171.4 23.9001 171.9 24.5 172.6 24.6C172.6 24.6 172.8 24.6 172.9 24.5Z" fill="white"/>
<path d="M226.1 3.6001H229.9V32.4001H226.1V3.6001Z" fill="white"/>
<path d="M208.3 8.8H216V20.9H208.3V8.8ZM219.7 24.2V5.5H204.5V22.8C204.4 23.5 204.9 24.1 205.6 24.2C205.7 24.2 205.8 24.2 206 24.2H219.7Z" fill="white"/>
<path d="M247.9 23.1999H240V26.3999H255.7V28.5999H240V35.7999C239.9 36.4999 240.4 37.0999 241.1 37.1999C241.2 37.1999 241.3 37.1999 241.5 37.1999H260.4V33.9999H243.8V31.7999H259.6V23.1999H251.9V20.6999H265V17.3999H235.1V20.6999H248.1L247.9 23.1999Z" fill="white"/>
<path d="M245.7 12.9C247.3 12 248.7 10.7 249.8 9.20005C250.9 10.7 252.3 12 253.9 12.9C256 14.1 258.2 15.1 260.5 15.7L262 12.7C260.7 12.3 259.4 11.9 258.1 11.3C256.9 10.8 255.8 10.2 254.8 9.40005C253.9 8.70005 253.2 8.00005 252.5 7.10005C251.9 6.30005 251.6 5.30005 251.6 4.40005V3.30005H247.7V4.40005C247.7 5.40005 247.4 6.30005 246.8 7.10005C246.2 8.00005 245.4 8.80005 244.5 9.40005C243.5 10.2 242.4 10.8 241.2 11.3C239.9 11.9 238.7 12.3 237.3 12.7L238.8 15.7C241.4 15 243.6 14.1 245.7 12.9Z" fill="white"/>
<path d="M293 16.4001H297.8V13.1001H293V3.6001H289.2V27.7001H293V16.4001Z" fill="white"/>
<path d="M294 36.4001V33.1H278.3V26.3H274.5V35C274.4 35.7 274.9 36.3001 275.6 36.4001C275.7 36.4001 275.8 36.4001 276 36.4001H294Z" fill="white"/>
<path d="M281.2 12.8C281 14.2 280.8 15.6 280.6 16.9L284.2 17.3C284.5 15.8 284.8 14.3 284.9 12.7C285.1 10.9 285.2 8.90005 285.2 6.70005V5.30005H269V8.60005H281.4C281.5 10 281.4 11.4 281.2 12.8Z" fill="white"/>
<path d="M278.6 23.2C279.7 23.1 280.9 23.1 282 23C283.1 22.9 284.2 22.8 285.1 22.6C286 22.5 286.9 22.3 287.8 22L287.3 18.9C285.8 19.3 284.4 19.5 282.9 19.7C281.4 19.9 279.8 20 278.3 20H277.3V13.3H273.5V20H267.1V23.3H275.4C276.3 23.3 277.4 23.2 278.6 23.2Z" fill="white"/>
</g>
<defs>
<clipPath id="clip0_318_1325">
<rect width="308.9" height="72" fill="white"/>
</clipPath>
</defs>
</svg>
