<svg width="72" height="72" viewBox="0 0 72 72" fill="none" xmlns="http://www.w3.org/2000/svg">
<g clip-path="url(#clip0_318_1394)">
<path d="M40.5 56H56.4L48.5 36L40.5 56Z" fill="white"/>
<path d="M61.7 67.4C61.6 67.4 61.5 67.5 61.4 67.5C61.1 67.5 60.8 67.3 60.6 67L57 57.6H39.9L36.2 66.9C36 67.3 35.6 67.5 35.2 67.4C34.8 67.2 34.6 66.8 34.7 66.4L40.5 51.7V27.7L30 49.7C29.8 50.1 29.3 50.3 28.9 50.1C28.7 50 28.6 49.9 28.5 49.7L18 27.6V38.5C18.6 38.5 19.2 38.5 19.7 38.5C20.1 38.5 20.5 38.9 20.5 39.3C20.5 39.7 20.1 40.1 19.7 40.1C19.5 40.1 19.2 40.1 19 40.1C18.7 40.1 18.4 40.1 18.1 40.1V50C18.1 50.4 17.7 50.8 17.3 50.8C16.9 50.8 16.5 50.4 16.5 50V40.4C16.2 40.5 16 40.5 15.7 40.6C10.7 42.1 7.30003 46.6 7.30003 51.8C7.30003 52.9 7.50003 54.1 7.80003 55.1C9.30003 60.1 13.8 63.5 19 63.5C20.1 63.5 21.3 63.3 22.3 63C26.1 61.9 29.1 58.9 30.2 55.1C30.3 54.7 30.8 54.4 31.2 54.6C31.6 54.7 31.9 55.2 31.7 55.6C29.6 62.6 22.2 66.7 15.1 64.5C8.10003 62.4 4.00003 55 6.20003 47.9C7.50003 43.6 10.9 40.2 15.2 39C15.6 38.9 16 38.8 16.4 38.7V24.2L9.40003 9.4V31.8C9.40003 32.2 9.00003 32.6 8.60003 32.6C8.20003 32.6 7.80003 32.2 7.80003 31.8V5.9C7.80003 5.5 8.20003 5.1 8.60003 5.1C8.90003 5.1 9.20003 5.3 9.30003 5.6L20.6 29.4L32 5.5C32.2 5.1 32.7 4.9 33.1 5.1C33.4 5.2 33.5 5.5 33.6 5.8V31.7C33.6 32.1 33.2 32.5 32.8 32.5C32.4 32.5 32 32.1 32 31.7V9.4L21.5 31.2L29.2 47.5L40.5 23.7C40.7 23.3 41.2 23.1 41.6 23.3C41.9 23.4 42.1 23.7 42.1 24V47.5L47.7 33.5C47.9 33.1 48.3 32.9 48.7 33C48.9 33.1 49.1 33.2 49.2 33.5L62.2 66.3C62.3 66.7 62.1 67.2 61.7 67.4ZM48 28.8V17.3H39.4V0H27.5L20.7 14.2H20.6L13.8 0H1.90003V36H8.40003C-0.299968 41.8 -2.59997 53.6 3.20003 62.3C9.00003 71 20.8 73.3 29.5 67.5L27.7 72H39.6L41.9 66.2H55L57.3 72H70.2L53 28.8H48Z" fill="white"/>
</g>
<defs>
<clipPath id="clip0_318_1394">
<rect width="72" height="72" fill="white"/>
</clipPath>
</defs>
</svg>
